<?xml version="1.0" encoding="UTF-8" standalone="no"?>
<!-- Generator: Gravit.io -->
<svg xmlns="http://www.w3.org/2000/svg" xmlns:xlink="http://www.w3.org/1999/xlink" style="isolation:isolate" viewBox="0 0 510 527" width="510" height="527"><defs><clipPath id="_clipPath_GIZnM8joIoWgHyFkwWeNQNa3Ygdf6UPP"><rect width="510" height="527"/></clipPath></defs><g clip-path="url(#_clipPath_GIZnM8joIoWgHyFkwWeNQNa3Ygdf6UPP)"><path d=" M 351.544 291.017 L 156.544 291.017 C 149.846 291.017 144.414 296.447 144.414 303.147 L 144.414 313.771 C 144.414 316.407 146.552 318.545 149.19 318.545 L 358.899 318.545 C 361.535 318.545 363.673 316.407 363.673 313.771 L 363.673 303.147 C 363.673 296.447 358.244 291.017 351.544 291.017 L 351.544 291.017 Z " fill="rgb(145,44,44)"/><path d=" M 351.544 291.017 L 335.205 291.017 L 335.205 318.547 L 358.899 318.547 C 361.537 318.547 363.673 316.409 363.673 313.771 L 363.673 303.147 C 363.673 296.447 358.244 291.017 351.544 291.017 L 351.544 291.017 Z " fill="rgb(124,30,30)"/><path d=" M 359.701 276.527 C 366.017 276.527 371.341 281.771 371.346 288.356 C 371.352 297.76 360.632 302.735 348.179 300.913 C 336.547 299.211 336.401 293.859 324.621 293.859 C 312.844 293.859 312.844 300.913 301.064 300.913 C 289.286 300.913 289.286 293.859 277.508 293.859 C 265.73 293.859 265.73 300.913 253.952 300.913 C 242.173 300.913 242.175 293.859 230.395 293.859 C 218.617 293.859 218.617 300.913 206.839 300.913 C 195.061 300.913 195.061 293.859 183.282 293.859 C 171.504 293.859 171.356 299.209 159.726 300.913 C 147.271 302.735 136.553 297.76 136.558 288.356 C 136.562 281.771 141.886 276.527 148.202 276.527 L 359.701 276.527 Z " fill="rgb(160,229,87)"/><path d=" M 371.346 288.356 C 371.341 281.771 366.017 276.527 359.701 276.527 L 342.027 276.527 L 342.027 299.392 C 343.697 300.009 345.67 300.546 348.179 300.913 C 360.632 302.735 371.352 297.76 371.346 288.356 Z " fill="rgb(147,204,74)"/><path d=" M 366.373 316.101 L 141.628 316.101 C 136.143 316.101 131.698 320.548 131.698 326.032 C 131.698 354.544 154.812 377.657 183.324 377.657 L 324.677 377.657 C 353.189 377.657 376.303 354.544 376.303 326.032 C 376.303 320.548 371.856 316.101 366.373 316.101 L 366.373 316.101 Z " fill="rgb(239,163,53)"/><path d=" M 366.373 316.101 L 347.885 316.101 L 347.885 335.964 C 347.885 358.991 329.216 377.659 306.189 377.659 L 324.677 377.659 C 353.189 377.659 376.303 354.544 376.303 326.032 C 376.303 320.548 371.856 316.101 366.373 316.101 L 366.373 316.101 Z " fill="rgb(253,143,49)"/><path d=" M 351.499 263.886 L 156.502 263.886 C 149.801 263.886 144.372 258.456 144.372 251.756 L 144.372 241.132 C 144.372 238.494 146.51 236.356 149.146 236.356 L 358.855 236.356 C 361.491 236.356 363.629 238.494 363.629 241.132 L 363.629 251.756 C 363.629 258.456 358.2 263.886 351.499 263.886 Z " fill="rgb(252,78,81)"/><path d=" M 358.855 236.356 L 335.248 236.356 L 335.248 256.532 C 335.248 260.592 331.956 263.886 327.894 263.886 L 351.501 263.886 C 358.2 263.886 363.631 258.456 363.631 251.756 L 363.631 241.132 C 363.629 238.494 361.491 236.356 358.855 236.356 L 358.855 236.356 Z " fill="rgb(234,57,66)"/><path d=" M 361.743 261.58 L 146.487 261.58 C 141.605 261.58 137.46 265.575 137.551 270.455 C 137.639 275.188 141.503 278.997 146.258 278.997 L 283.024 278.997 C 285.247 278.997 287.394 279.791 289.082 281.237 L 308.493 297.869 C 314.162 302.728 322.626 302.363 327.859 297.037 L 342.846 281.783 C 344.595 280.001 346.989 278.997 349.486 278.997 L 361.516 278.997 C 366.396 278.997 370.543 275.004 370.45 270.122 C 370.362 265.389 366.498 261.58 361.743 261.58 L 361.743 261.58 Z " fill="rgb(252,207,63)"/><path d=" M 254 149.658 C 140.129 149.7 131.698 224.818 131.698 235.456 C 131.698 240.941 136.145 245.386 141.628 245.386 L 366.373 245.386 C 371.856 245.386 376.303 240.941 376.303 235.456 C 376.303 224.818 367.872 149.7 254 149.658 Z " fill="rgb(239,163,53)"/><path d=" M 376.301 235.173 C 376.301 235.143 376.299 235.11 376.299 235.077 C 376.299 235.006 376.297 234.933 376.295 234.858 C 376.293 234.823 376.293 234.787 376.291 234.75 C 376.289 234.674 376.287 234.593 376.284 234.512 C 376.284 234.474 376.282 234.437 376.28 234.399 C 376.276 234.31 376.272 234.22 376.268 234.128 C 376.266 234.093 376.264 234.06 376.262 234.028 C 376.259 233.918 376.251 233.806 376.245 233.691 C 376.243 233.67 376.243 233.651 376.241 233.631 C 376.199 232.912 376.13 232.076 376.028 231.14 C 376.028 231.138 376.028 231.136 376.028 231.136 C 373.94 211.943 357.656 149.697 254 149.658 C 249.067 149.66 244.336 149.806 239.791 150.077 C 308.775 154.211 333.996 188.185 343.023 212.333 C 346.82 222.494 339.222 233.31 328.376 233.31 L 141.628 233.31 C 137.539 233.31 134.028 230.836 132.506 227.304 C 131.873 231.073 131.698 233.929 131.698 235.456 C 131.698 240.941 136.145 245.386 141.628 245.386 L 366.373 245.386 C 371.856 245.386 376.303 240.941 376.303 235.456 C 376.303 235.368 376.303 235.271 376.301 235.173 L 376.301 235.173 Z " fill="rgb(253,143,49)"/><path d=" M 361.743 261.58 L 342.027 261.58 L 342.027 282.615 L 342.846 281.783 C 344.595 280.001 346.989 278.997 349.486 278.997 L 361.516 278.997 C 366.396 278.997 370.543 275.002 370.45 270.122 C 370.362 265.389 366.498 261.58 361.743 261.58 Z " fill="rgb(239,192,60)"/><path d=" M 367.37 312.445 L 367.37 303.147 C 367.37 302.589 367.33 302.034 367.272 301.484 C 368.189 300.934 369.041 300.326 369.814 299.657 C 373.238 296.697 375.045 292.788 375.042 288.354 C 375.04 284.561 373.644 280.945 371.231 278.151 C 373.125 275.902 374.201 273.037 374.146 270.053 C 374.048 264.753 370.554 260.234 365.782 258.57 C 366.773 256.505 367.326 254.194 367.326 251.756 L 367.326 249.047 C 374.398 248.555 380 242.648 380 235.456 C 380 234.416 379.781 209.71 360.722 186.253 C 351.036 174.331 338.214 164.889 322.608 158.189 C 303.732 150.085 280.65 145.971 253.999 145.961 C 220.432 145.972 192.714 152.463 171.613 165.248 C 169.866 166.308 169.308 168.58 170.365 170.326 C 171.425 172.072 173.697 172.631 175.443 171.572 C 195.375 159.496 221.805 153.367 253.999 153.355 C 279.64 153.365 301.741 157.275 319.692 164.983 C 334.186 171.207 346.06 179.931 354.983 190.915 C 372.406 212.358 372.606 234.524 372.606 235.456 C 372.606 238.894 369.81 241.689 366.373 241.689 L 141.628 241.689 C 138.191 241.689 135.395 238.894 135.395 235.456 C 135.395 234.527 135.516 226.043 139.744 214.382 C 144.368 201.624 151.891 190.529 162.1 181.406 C 163.623 180.045 163.756 177.707 162.394 176.186 C 161.033 174.663 158.697 174.533 157.175 175.892 C 128.334 201.666 128.001 234.089 128.001 235.456 C 128.001 242.648 133.603 248.555 140.673 249.047 L 140.673 251.756 C 140.673 254.215 141.238 256.545 142.244 258.623 C 140.434 259.269 138.768 260.319 137.403 261.709 C 135.053 264.103 133.794 267.235 133.855 270.524 C 133.907 273.375 134.928 276.042 136.67 278.157 C 134.259 280.951 132.865 284.567 132.863 288.354 C 132.859 292.788 134.667 296.697 138.091 299.657 C 138.912 300.367 139.823 301.007 140.804 301.582 C 140.752 302.101 140.717 302.622 140.717 303.147 L 140.717 312.437 C 133.627 312.91 128.001 318.824 128.001 326.032 C 128.001 356.538 152.82 381.354 183.324 381.354 L 324.677 381.354 C 355.181 381.354 380 356.538 380 326.032 C 380 318.855 374.421 312.958 367.37 312.445 L 367.37 312.445 Z  M 364.979 294.065 C 361.58 297.004 355.348 298.227 348.714 297.256 C 344.017 296.568 341.544 295.26 338.927 293.874 C 338.326 293.557 337.718 293.234 337.084 292.921 L 345.482 284.373 C 346.529 283.306 347.989 282.694 349.486 282.694 L 361.514 282.694 C 362.664 282.694 363.794 282.539 364.894 282.229 C 366.621 283.763 367.647 285.997 367.649 288.36 C 367.649 290.612 366.751 292.532 364.979 294.065 L 364.979 294.065 Z  M 148.067 249.085 L 359.934 249.085 L 359.934 251.756 C 359.934 254.626 358.49 257.164 356.292 258.687 C 356.231 258.731 356.167 258.771 356.104 258.812 C 355.946 258.916 355.785 259.014 355.621 259.106 C 355.564 259.139 355.508 259.171 355.452 259.202 C 355.243 259.314 355.029 259.417 354.81 259.512 C 354.797 259.517 354.785 259.523 354.774 259.529 C 354.529 259.631 354.279 259.723 354.024 259.802 C 353.995 259.812 353.966 259.819 353.937 259.827 C 353.724 259.892 353.507 259.948 353.285 259.994 C 353.216 260.01 353.149 260.023 353.08 260.036 C 352.889 260.071 352.697 260.102 352.503 260.125 C 352.43 260.133 352.359 260.142 352.286 260.15 C 352.026 260.175 351.765 260.19 351.499 260.19 L 156.5 260.19 C 151.851 260.19 148.067 256.407 148.067 251.758 L 148.067 249.085 Z  M 142.68 266.889 C 143.686 265.866 145.072 265.277 146.487 265.277 L 148.283 265.277 C 150.68 266.739 153.493 267.583 156.502 267.583 L 351.499 267.583 C 351.828 267.583 352.153 267.569 352.476 267.55 C 352.58 267.544 352.682 267.535 352.784 267.527 C 353.011 267.508 353.237 267.485 353.462 267.456 C 353.572 267.442 353.683 267.431 353.793 267.415 C 354.081 267.373 354.368 267.325 354.651 267.267 C 354.77 267.242 354.887 267.214 355.006 267.187 C 355.2 267.142 355.395 267.096 355.587 267.044 C 355.733 267.006 355.879 266.964 356.023 266.921 C 356.179 266.875 356.333 266.823 356.487 266.773 C 356.635 266.725 356.781 266.677 356.927 266.625 C 357.179 266.531 357.429 266.433 357.675 266.329 C 357.823 266.266 357.969 266.196 358.115 266.129 C 358.253 266.066 358.39 266 358.525 265.933 C 358.669 265.86 358.813 265.789 358.955 265.712 C 359.117 265.625 359.276 265.533 359.436 265.441 C 359.532 265.385 359.63 265.335 359.726 265.277 L 361.743 265.277 C 364.456 265.277 366.703 267.483 366.753 270.192 C 366.79 272.08 365.636 273.873 363.817 274.758 C 363.817 274.758 363.817 274.758 363.816 274.758 C 363.075 275.117 362.301 275.302 361.514 275.302 L 349.484 275.302 C 346.018 275.302 342.636 276.719 340.206 279.193 L 325.219 294.447 C 321.647 298.085 315.983 298.577 311.848 295.78 C 311.757 295.718 311.669 295.656 311.58 295.593 C 311.35 295.428 311.121 295.255 310.9 295.066 C 310.9 295.064 310.898 295.062 310.896 295.062 L 291.485 278.43 C 289.13 276.413 286.125 275.302 283.024 275.302 L 146.258 275.302 C 145.497 275.302 144.758 275.127 144.06 274.785 L 144.059 274.785 C 142.359 273.95 141.282 272.264 141.248 270.386 C 141.223 269.098 141.732 267.856 142.68 266.889 L 142.68 266.889 Z  M 140.258 288.358 C 140.258 286.011 141.275 283.788 142.986 282.254 C 144.047 282.546 145.141 282.694 146.258 282.694 L 283.024 282.694 C 284.364 282.694 285.66 283.175 286.677 284.044 L 302.027 297.198 C 301.719 297.21 301.398 297.216 301.066 297.216 C 296.2 297.216 293.987 295.891 291.187 294.215 C 288.015 292.315 284.42 290.162 277.508 290.162 C 270.598 290.162 267.003 292.315 263.831 294.215 C 261.031 295.891 258.82 297.216 253.952 297.216 C 249.084 297.216 246.873 295.891 244.074 294.215 C 240.902 292.315 237.307 290.162 230.397 290.162 C 223.485 290.162 219.89 292.315 216.717 294.215 C 213.918 295.891 211.707 297.216 206.839 297.216 C 201.971 297.216 199.76 295.891 196.961 294.215 C 193.789 292.315 190.193 290.162 183.282 290.162 C 175.979 290.162 172.417 292.05 168.972 293.874 C 166.357 295.259 163.886 296.568 159.189 297.254 C 152.555 298.225 146.323 297.002 142.926 294.065 C 141.154 292.532 140.256 290.612 140.258 288.358 L 140.258 288.358 Z  M 324.677 373.962 L 183.324 373.962 C 156.896 373.962 135.395 352.46 135.395 326.032 C 135.395 322.594 138.191 319.799 141.628 319.799 L 307.362 319.799 C 309.404 319.799 311.059 318.143 311.059 316.101 C 311.059 314.06 309.404 312.404 307.362 312.404 L 148.111 312.404 L 148.111 304.308 C 150.213 304.747 152.451 304.977 154.775 304.977 C 156.563 304.977 158.401 304.843 160.262 304.572 C 166.22 303.699 169.521 301.951 172.434 300.409 C 175.443 298.815 177.819 297.556 183.283 297.556 C 188.15 297.556 190.362 298.881 193.162 300.557 C 196.334 302.457 199.929 304.61 206.841 304.61 C 213.751 304.61 217.346 302.457 220.518 300.557 C 223.318 298.881 225.529 297.556 230.397 297.556 C 235.265 297.556 237.476 298.881 240.275 300.557 C 243.447 302.457 247.043 304.61 253.954 304.61 C 260.864 304.61 264.459 302.457 267.632 300.557 C 270.431 298.881 272.642 297.556 277.51 297.556 C 282.378 297.556 284.589 298.881 287.388 300.557 C 290.561 302.457 294.156 304.61 301.066 304.61 C 304.357 304.61 307.118 304.133 309.771 303.107 C 312.273 304.345 314.997 304.964 317.721 304.964 C 322.376 304.964 327.019 303.168 330.497 299.629 L 331.531 298.577 C 332.921 299.067 334.134 299.704 335.473 300.411 C 338.385 301.953 341.686 303.699 347.645 304.572 C 349.506 304.845 351.344 304.977 353.132 304.977 C 355.523 304.977 357.823 304.733 359.978 304.27 L 359.978 312.404 L 324.566 312.404 C 322.524 312.404 320.869 314.06 320.869 316.101 C 320.869 318.143 322.524 319.799 324.566 319.799 L 366.373 319.799 C 369.81 319.799 372.608 322.594 372.608 326.032 C 372.606 352.46 351.105 373.962 324.677 373.962 L 324.677 373.962 Z " fill="rgb(0,0,0)"/></g></svg>